<?xml version="1.0" encoding="UTF-8"?>
<svg id="Layer_1" xmlns="http://www.w3.org/2000/svg" viewBox="0 0 471.43 800">
  <path d="M414.29,108.57v-51.43c0-31.43-25.71-57.14-57.14-57.14H98.57c-31.43,0-55.71,25.71-55.71,57.14v52.86C1.43,165.71,0,185.71,0,285.71c0,52.86,14.29,112.86,17.14,130-8.57,32.86,8.57,67.14,41.43,78.57,11.65,3.49,23.3,4.14,34.17,1.93,2.47-.38,4.9-.89,7.27-1.55.17,25.57,17.26,49.66,42.85,58.19l2.86,1.43c13.26,4.08,27.24,3.77,39.87-.37,2.82-.78,5.69-1.63,8.7-2.49,2.03-1.02,4-2.16,5.9-3.4,6.08,29.56,32.98,51.97,64.1,51.97,12.86,0,25.71-4.29,35.71-11.43v147.14c0,35.71,28.57,64.29,64.29,64.29s64.29-28.57,64.29-64.29v-400c38.57-30,42.86-61.43,42.86-105.71v-1.43c0-60-41.43-105.71-57.14-120ZM231.66,311.97c-20.16,26.06-35.36,50.22-41.66,66.6-1.59,3.77-2.69,7.72-3.38,11.75-2.67,13.97-.58,27.79,5.36,39.43,5.02,11.82,12.79,22.52,22.3,30.25l-15.71,45.71c-2.86,8.57-8.57,15.71-17.14,20-7.14,4.29-17.14,4.29-25.71,1.43l-2.86-1.43c-8.57-2.86-15.71-8.57-20-17.14-.46-.93-.87-1.86-1.24-2.79-2.45-7.05-2.64-14.98-.19-22.93l10-28.57,44.45-132.06,1.27-3.65c7.14-18.57,25.71-27.14,44.29-21.43l2.86,1.43c1.4,0,4.18,1.38,5.63,2.79-2.82,3.54-5.57,7.08-8.26,10.61ZM165.71,295.71l-38.58,111.45-13.14,37.78c-7.36,18.1-27.08,26.41-45.42,20.77-18.57-5.71-28.57-25.71-21.43-45.71,0-1.4.34-2.81.52-4.22l49.48-142.93c2.86-8.57,10-15.71,18.57-20,4.29-2.86,10-4.29,15.71-4.29,4.29,0,7.14,1.43,12.86,1.43,8.57,2.86,15.71,10,20,18.57s4.29,18.57,1.43,27.14ZM292.86,561.43c-7.14,5.71-15.71,10-25.71,10-20,0-37.14-15.71-37.14-35.71v-5.71l4.29-32.86c0-1.47-.19-2.94-.54-4.36l11.97-34.21c.25-.62.44-1.25.6-1.87,12.65-1.41,27.42-6.59,45.11-19.56,3.28-2.01,7.13-4.53,11.43-7.47v108.9c0,8.57-4.28,17.14-10,22.85ZM364.29,771.43c-20,0-35.71-15.71-35.71-35.71v-197.14q0-1.43,2.86-1.43v-121.43c0-2.13-.35-4.08-1.01-5.81,21.14-15.63,46.1-34.78,69.59-52.63v378.44c0,20-15.72,35.71-35.72,35.71ZM442.86,228.57c0,42.86-2.86,64.29-35.71,87.14l-1.43,1.43c-45.71,34.29-105.71,81.43-130,97.14-22.86,14.29-41.43,18.57-52.86,10-1.5-1.25-2.82-2.78-3.97-4.5-4.22-9.9-5.36-21.12-1.75-29.78,7.14-17.14,27.14-47.14,54.29-80,1.66-2.21,2.67-4.64,3.04-7.12,32.18-38.03,68.19-72.93,85.53-80.02,7.14-2.86,10-11.43,7.14-18.57-2.86-7.14-11.43-10-18.57-7.14-20.81,8.92-57.1,43.37-90.14,81.81-4.5-3.05-9.32-5.46-14.15-7.53l-2.86-1.43c-16.41-5.71-33.53-4.29-47.98,2.65-4.52-21.63-20.08-40.74-42.02-48.37-15.71-5.71-32.86-4.29-48.57,2.86-15.71,8.57-27.14,21.43-32.86,37.14l-33.69,97.33c-4.07-22.88-7.74-50.52-7.74-75.9,0-100,1.43-111.43,40-162.86,2.86-2.86,2.86-7.14,2.86-10v-55.71c0-15.71,12.86-28.57,27.14-28.57h258.57c15.71,0,28.57,12.86,28.57,28.57v57.14c0,4.29,1.43,8.57,5.71,11.43,0,0,50,42.86,51.43,101.43v1.43h0Z"/>
</svg>